<svg width="50" height="48" viewBox="0 0 50 48" fill="none" xmlns="http://www.w3.org/2000/svg">
<path d="M12.5 4L6.25 12V40C6.25 41.0609 6.68899 42.0783 7.47039 42.8284C8.25179 43.5786 9.3116 44 10.4167 44H39.5833C40.6884 44 41.7482 43.5786 42.5296 42.8284C43.311 42.0783 43.75 41.0609 43.75 40V12L37.5 4H12.5Z" stroke="black" stroke-width="2" stroke-linecap="round" stroke-linejoin="round"/>
<path d="M6.25 12H43.75" stroke="black" stroke-width="2" stroke-linecap="round" stroke-linejoin="round"/>
<path d="M33.3332 20C33.3332 22.1217 32.4552 24.1566 30.8924 25.6569C29.3296 27.1571 27.21 28 24.9998 28C22.7897 28 20.6701 27.1571 19.1073 25.6569C17.5445 24.1566 16.6665 22.1217 16.6665 20" stroke="black" stroke-width="2" stroke-linecap="round" stroke-linejoin="round"/>
</svg>
