<svg width="59" height="59" viewBox="0 0 59 59" fill="none" xmlns="http://www.w3.org/2000/svg">
<path d="M46.7083 51.625H17.2083C14.6004 51.625 12.0992 50.589 10.2551 48.7449C8.41101 46.9008 7.375 44.3996 7.375 41.7917V12.2917C7.375 10.9877 7.893 9.73711 8.81506 8.81506C9.73711 7.893 10.9877 7.375 12.2917 7.375H36.875C38.179 7.375 39.4296 7.893 40.3516 8.81506C41.2737 9.73711 41.7917 10.9877 41.7917 12.2917V44.25C41.7917 48.3235 42.6349 51.625 46.7083 51.625Z" stroke="#424242" stroke-width="2" stroke-linecap="round" stroke-linejoin="round"/>
<path d="M51.6248 24.5832C51.6248 23.2792 51.1068 22.0286 50.1848 21.1066C49.2627 20.1845 48.0122 19.6665 46.7082 19.6665H41.7915V45.479C41.7915 48.8715 43.3157 51.6248 46.7082 51.6248C50.1007 51.6248 51.6248 48.8715 51.6248 45.479V24.5832Z" stroke="#424242" stroke-width="2" stroke-linecap="round" stroke-linejoin="round"/>
<path d="M31.9585 27.0418H17.2085M31.9585 17.2085H17.2085M24.5835 36.8752H17.2085" stroke="#424242" stroke-width="2" stroke-linecap="round"/>
</svg>
