<svg width="50" height="50" viewBox="0 0 50 50" fill="none" xmlns="http://www.w3.org/2000/svg">
<path d="M43.9148 48.6229H15.6662C13.1689 48.6229 10.7738 47.6308 9.00794 45.8649C7.24206 44.0991 6.25 41.704 6.25 39.2067V10.9581C6.25 9.70943 6.74603 8.51191 7.62897 7.62897C8.51191 6.74603 9.70943 6.25 10.9581 6.25H34.4986C35.7473 6.25 36.9448 6.74603 37.8277 7.62897C38.7107 8.51191 39.2067 9.70943 39.2067 10.9581V41.5607C39.2067 45.4614 40.0141 48.6229 43.9148 48.6229Z" stroke="black" stroke-width="2" stroke-linecap="round" stroke-linejoin="round"/>
<path d="M48.6227 22.7281C48.6227 21.4795 48.1267 20.2819 47.2438 19.399C46.3608 18.5161 45.1633 18.02 43.9146 18.02H39.2065V42.7375C39.2065 45.9861 40.6661 48.6227 43.9146 48.6227C47.1632 48.6227 48.6227 45.9861 48.6227 42.7375V22.7281Z" stroke="black" stroke-width="2" stroke-linecap="round" stroke-linejoin="round"/>
<path d="M6.5 10.5L8 7.5L9 6.5H37L39.5 10.5V40.5V46L42 48.5H14L9 46L6.5 40.5V10.5Z" fill="black"/>
<path d="M29.7908 25.0827H15.6665M29.7908 15.6665H15.6665M22.7287 34.4989H15.6665" stroke="white" stroke-width="2" stroke-linecap="round"/>
</svg>
